<?xml version="1.0" encoding="iso-8859-1"?>
<!-- Generator: Adobe Illustrator 19.0.0, SVG Export Plug-In . SVG Version: 6.00 Build 0)  -->
<svg version="1.1" id="Capa_1" xmlns="http://www.w3.org/2000/svg" xmlns:xlink="http://www.w3.org/1999/xlink" x="0px" y="0px"
	 viewBox="0 0 388.702 388.702" style="enable-background:new 0 0 388.702 388.702;" xml:space="preserve">
<g>
	<g>
		<path style="fill:#3BB54A;" d="M194.351,10.449c101.566,0,183.902,82.336,183.902,183.902s-82.336,183.902-183.902,183.902
			S10.449,295.917,10.449,194.351l0,0C10.16,93.074,92.027,10.738,193.305,10.449C193.653,10.448,194.002,10.448,194.351,10.449z
			 M165.616,274.286l130.612-130.612l-29.78-29.257L165.616,215.249l-43.363-42.841l-29.78,29.257L165.616,274.286z"/>
		<polygon style="fill:#D4E1F4;" points="296.229,143.673 165.616,274.286 92.473,201.665 122.253,172.408 165.616,215.249 
			266.449,114.416 		"/>
	</g>
	<g>
		<path style="fill:#224099;" d="M194.351,388.702C87.014,388.702,0,301.688,0,194.351C0,87.014,87.014,0,194.351,0
			c107.337,0,194.351,87.014,194.351,194.351c0,0,0,0,0,0C388.415,301.569,301.569,388.415,194.351,388.702z M194.351,20.898
			c-95.795,0-173.453,77.658-173.453,173.453s77.658,173.453,173.453,173.453s173.453-77.658,173.453-173.453
			S290.147,20.898,194.351,20.898L194.351,20.898z"/>
		<path style="fill:#224099;" d="M165.616,284.735c-2.937,0.104-5.782-1.034-7.837-3.135l-72.62-72.62
			c-4.04-3.706-4.31-9.986-0.603-14.025c0.192-0.21,0.394-0.411,0.603-0.603l29.78-29.78c4.165-3.725,10.464-3.725,14.629,0
			l36.049,36.049l93.518-93.518c3.706-4.04,9.986-4.31,14.025-0.603c0.21,0.192,0.411,0.394,0.603,0.603l29.78,29.257
			c4.04,3.706,4.31,9.986,0.603,14.025c-0.192,0.21-0.394,0.411-0.603,0.603L172.931,281.6
			C171.001,283.569,168.372,284.695,165.616,284.735z M107.625,201.665l57.992,57.992l115.461-115.984l-14.629-14.629
			l-93.518,93.518c-4.24,4.047-10.911,4.047-15.151,0l-35.527-35.527L107.625,201.665z"/>
	</g>
</g>
<g>
</g>
<g>
</g>
<g>
</g>
<g>
</g>
<g>
</g>
<g>
</g>
<g>
</g>
<g>
</g>
<g>
</g>
<g>
</g>
<g>
</g>
<g>
</g>
<g>
</g>
<g>
</g>
<g>
</g>
</svg>
