<svg id="color" enable-background="new 0 0 24 24" height="512" viewBox="0 0 24 24" width="512" xmlns="http://www.w3.org/2000/svg"><circle cx="19.5" cy="13.5" fill="#2196f3" r="1.5"/><circle cx="19.5" cy="20.5" fill="#2196f3" r="1.5"/><path d="m24 17h-24v-4.25c0-1.517 1.233-2.75 2.75-2.75h18.5c1.517 0 2.75 1.233 2.75 2.75z" fill="#b0bec5"/><path d="m21.25 24h-18.5c-1.517 0-2.75-1.233-2.75-2.75v-4.25h24v4.25c0 1.517-1.233 2.75-2.75 2.75z" fill="#cfd8dc"/><path d="m12 10h-9.25c-1.517 0-2.75 1.233-2.75 2.75v4.25h12z" fill="#99a5ac"/><path d="m12 17h-12v4.25c0 1.517 1.233 2.75 2.75 2.75h9.25z" fill="#b4bcc0"/><path d="m14 10h-11.25c-1.519 0-2.75-1.231-2.75-2.75v-4.5c0-1.519 1.231-2.75 2.75-2.75h11.25z" fill="#607d8b"/><path d="m7.5 0h-4.75c-1.519 0-2.75 1.231-2.75 2.75v4.5c0 1.519 1.231 2.75 2.75 2.75h4.75z" fill="#546d79"/><path d="m21.25 10h-7.25v-10h7.25c1.519 0 2.75 1.231 2.75 2.75v4.5c0 1.519-1.231 2.75-2.75 2.75z" fill="#2196f3"/><path d="m19 7c-.256 0-.512-.098-.707-.293l-2-2c-.391-.391-.391-1.023 0-1.414s1.023-.391 1.414 0l1.293 1.293 1.293-1.293c.391-.391 1.023-.391 1.414 0s.391 1.023 0 1.414l-2 2c-.195.195-.451.293-.707.293z" fill="#eceff1"/><path d="m19 0h-5v10h5v-3c-.256 0-.512-.098-.707-.293l-2-2c-.391-.391-.391-1.023 0-1.414.195-.195.451-.293.707-.293s.512.098.707.293l1.293 1.293z" fill="#1d83d4"/><path d="m17 3c-.256 0-.512.098-.707.293-.391.391-.391 1.023 0 1.414l2 2c.195.195.451.293.707.293v-2.414l-1.293-1.293c-.195-.195-.451-.293-.707-.293z" fill="#cdd0d2"/></svg>